{
  "accessors": [
    {
      "bufferView": 1,
      "componentType": 5126,
      "count": 49704,
      "max": [
        10.00000286102295,
        57.307613372802734,
        46.62864685058594
      ],
      "min": [
        -9.99999713897705,
        -57.307613372802734,
        0.0
      ],
      "type": "VEC3"
    },
    {
      "bufferView": 1,
      "byteOffset": 596448,
      "componentType": 5126,
      "count": 49704,
      "max": [
        0.9999326467514038,
        0.9976564049720764,
        0.9992594718933105
      ],
      "min": [
        -0.999932587146759,
        -0.9987440705299377,
        -0.9994138479232788
      ],
      "type": "VEC3"
    },
    {
      "bufferView": 0,
      "componentType": 5125,
      "count": 49704,
      "type": "SCALAR"
    }
  ],
  "asset": {
    "extras": {
      "author": "mrchezeburrger (https://sketchfab.com/mrchezeburrger)",
      "license": "CC-BY-4.0 (http://creativecommons.org/licenses/by/4.0/)",
      "source": "https://sketchfab.com/3d-models/ark-carno-098cf18b84984fa9bd31e670e95b4f52",
      "title": "ARK Carno"
    },
    "generator": "Sketchfab-15.19.0",
    "version": "2.0"
  },
  "bufferViews": [
    {
      "buffer": 0,
      "byteLength": 198816,
      "name": "floatBufferViews",
      "target": 34963
    },
    {
      "buffer": 0,
      "byteLength": 1192896,
      "byteOffset": 198816,
      "byteStride": 12,
      "name": "floatBufferViews",
      "target": 34962
    }
  ],
  "buffers": [
    {
      "byteLength": 1391712,
      "uri": "scene.bin"
    }
  ],
  "materials": [
    {
      "doubleSided": true,
      "name": "DefaultMaterial.003",
      "pbrMetallicRoughness": {
        "metallicFactor": 0.0,
        "roughnessFactor": 0.7885257473118872
      }
    }
  ],
  "meshes": [
    {
      "name": "Uranium_DefaultMaterial.003_0",
      "primitives": [
        {
          "attributes": {
            "NORMAL": 1,
            "POSITION": 0
          },
          "indices": 2,
          "material": 0,
          "mode": 4
        }
      ]
    }
  ],
  "nodes": [
    {
      "children": [
        1
      ],
      "matrix": [
        1.0,
        0.0,
        0.0,
        0.0,
        0.0,
        2.220446049250313e-16,
        -1.0,
        0.0,
        0.0,
        1.0,
        2.220446049250313e-16,
        0.0,
        0.0,
        0.0,
        0.0,
        1.0
      ],
      "name": "Sketchfab_model"
    },
    {
      "children": [
        2
      ],
      "matrix": [
        0.009999999776482582,
        0.0,
        0.0,
        0.0,
        0.0,
        0.0,
        0.009999999776482582,
        0.0,
        0.0,
        -0.009999999776482582,
        0.0,
        0.0,
        0.0,
        0.0,
        0.0,
        1.0
      ],
      "name": "94107bff83e7497e94b67332c5beca55.fbx"
    },
    {
      "children": [
        3
      ],
      "name": "RootNode"
    },
    {
      "children": [
        4
      ],
      "matrix": [
        88.31455993652344,
        0.0,
        0.0,
        0.0,
        0.0,
        -1.4388268105049014e-05,
        -88.31455993652227,
        0.0,
        0.0,
        88.31455993652227,
        -1.4388268105049014e-05,
        0.0,
        0.0,
        0.0,
        0.0,
        1.0
      ],
      "name": "Uranium"
    },
    {
      "mesh": 0,
      "name": "Uranium_DefaultMaterial.003_0"
    }
  ],
  "scene": 0,
  "scenes": [
    {
      "name": "Sketchfab_Scene",
      "nodes": [
        0
      ]
    }
  ]
}
